<svg xmlns="http://www.w3.org/2000/svg" viewBox="0 0 180 180">
  <rect width="180" height="180" rx="40" fill="#14151c"/>
  <text x="90" y="96" font-size="86" text-anchor="middle" fill="#e8a33d" font-family="Georgia, serif">♪</text>
  <g>
    <rect x="24" y="118" width="18" height="38" rx="2" fill="#f2efe6"/>
    <rect x="43" y="118" width="18" height="38" rx="2" fill="#f2efe6"/>
    <rect x="62" y="118" width="18" height="38" rx="2" fill="#f2efe6"/>
    <rect x="81" y="118" width="18" height="38" rx="2" fill="#4fa3e8"/>
    <rect x="100" y="118" width="18" height="38" rx="2" fill="#f2efe6"/>
    <rect x="119" y="118" width="18" height="38" rx="2" fill="#f2efe6"/>
    <rect x="138" y="118" width="18" height="38" rx="2" fill="#e8a33d"/>
    <rect x="36" y="118" width="12" height="23" fill="#23242e"/>
    <rect x="55" y="118" width="12" height="23" fill="#23242e"/>
    <rect x="93" y="118" width="12" height="23" fill="#23242e"/>
    <rect x="112" y="118" width="12" height="23" fill="#23242e"/>
    <rect x="131" y="118" width="12" height="23" fill="#23242e"/>
  </g>
</svg>
